<mxfile host="65bd71144e">
    <diagram id="4YmHeemuZff2wJTiHYlg" name="Page-1">
        <mxGraphModel dx="1179" dy="510" grid="1" gridSize="10" guides="1" tooltips="1" connect="1" arrows="1" fold="1" page="1" pageScale="1" pageWidth="827" pageHeight="1169" math="0" shadow="0">
            <root>
                <mxCell id="0"/>
                <mxCell id="1" parent="0"/>
                <mxCell id="52" value="" style="labelPosition=center;verticalLabelPosition=middle;align=center;verticalAlign=middle;horizontal=1;textOpacity=90;fillColor=#f5f5f5;rounded=0;imageAspect=1;html=1;spacingTop=0;spacing=-26;fontColor=#333333;strokeColor=#666666;" parent="1" vertex="1">
                    <mxGeometry x="289" y="369" width="100" height="110" as="geometry"/>
                </mxCell>
                <mxCell id="48" value="" style="labelPosition=center;verticalLabelPosition=middle;align=center;verticalAlign=middle;horizontal=1;textOpacity=90;fillColor=#f5f5f5;rounded=0;imageAspect=1;html=1;spacingTop=0;spacing=-26;fontColor=#333333;strokeColor=#666666;" parent="1" vertex="1">
                    <mxGeometry x="160" y="330" width="110" height="150" as="geometry"/>
                </mxCell>
                <mxCell id="44" value="データソース" style="labelPosition=center;verticalLabelPosition=top;align=center;verticalAlign=bottom;horizontal=1;textOpacity=90;fillColor=#f5f5f5;rounded=0;imageAspect=1;html=1;spacingTop=0;spacing=-26;fontColor=#333333;strokeColor=#666666;" parent="1" vertex="1">
                    <mxGeometry width="130" height="490" as="geometry"/>
                </mxCell>
                <mxCell id="16" value="リレーショナル&lt;br&gt;データベース" style="dashed=1;labelPosition=center;verticalLabelPosition=top;align=center;verticalAlign=bottom;horizontal=1;textOpacity=90;fillColor=default;rounded=0;imageAspect=1;html=1;spacingTop=0;spacing=-31;" parent="1" vertex="1">
                    <mxGeometry x="10" y="49" width="110" height="121" as="geometry"/>
                </mxCell>
                <mxCell id="15" value="RDB" style="shape=datastore;whiteSpace=wrap;html=1;fillColor=default;" parent="1" vertex="1">
                    <mxGeometry x="40" y="99" width="40" height="50" as="geometry"/>
                </mxCell>
                <mxCell id="18" value="ファイル" style="dashed=1;labelPosition=center;verticalLabelPosition=top;align=center;verticalAlign=bottom;horizontal=1;textOpacity=90;fillColor=default;rounded=0;imageAspect=1;html=1;spacingTop=0;spacing=-21;" parent="1" vertex="1">
                    <mxGeometry x="10" y="189" width="110" height="130" as="geometry"/>
                </mxCell>
                <mxCell id="20" value="テレメトリ" style="dashed=1;labelPosition=center;verticalLabelPosition=top;align=center;verticalAlign=bottom;horizontal=1;textOpacity=90;fillColor=default;rounded=0;imageAspect=1;html=1;spacingTop=0;spacing=-21;" parent="1" vertex="1">
                    <mxGeometry x="10" y="340" width="110" height="137.5" as="geometry"/>
                </mxCell>
                <mxCell id="23" value="CSV" style="whiteSpace=wrap;html=1;shape=mxgraph.basic.document;rounded=0;fillColor=default;" parent="1" vertex="1">
                    <mxGeometry x="20" y="219" width="40" height="40" as="geometry"/>
                </mxCell>
                <mxCell id="24" value="JSON" style="whiteSpace=wrap;html=1;shape=mxgraph.basic.document;rounded=0;fillColor=default;" parent="1" vertex="1">
                    <mxGeometry x="70" y="219" width="40" height="40" as="geometry"/>
                </mxCell>
                <mxCell id="27" value="Parquet" style="whiteSpace=wrap;html=1;shape=mxgraph.basic.document;rounded=0;fillColor=default;" parent="1" vertex="1">
                    <mxGeometry x="34.5" y="269" width="60" height="30" as="geometry"/>
                </mxCell>
                <mxCell id="32" value="" style="fontColor=#0066CC;verticalAlign=top;verticalLabelPosition=bottom;labelPosition=center;align=center;html=1;outlineConnect=0;fillColor=#CCCCCC;strokeColor=#6881B3;gradientColor=none;gradientDirection=north;strokeWidth=2;shape=mxgraph.networks.comm_link;rounded=0;rotation=45;" parent="1" vertex="1">
                    <mxGeometry x="52.5" y="370" width="15" height="50" as="geometry"/>
                </mxCell>
                <mxCell id="33" value="" style="fontColor=#0066CC;verticalAlign=top;verticalLabelPosition=bottom;labelPosition=center;align=center;html=1;outlineConnect=0;fillColor=#CCCCCC;strokeColor=#6881B3;gradientColor=none;gradientDirection=north;strokeWidth=2;shape=mxgraph.networks.radio_tower;rounded=0;" parent="1" vertex="1">
                    <mxGeometry x="76" y="402.5" width="28" height="57.5" as="geometry"/>
                </mxCell>
                <mxCell id="50" value="" style="edgeStyle=none;html=1;" parent="1" source="38" target="49" edge="1">
                    <mxGeometry relative="1" as="geometry"/>
                </mxCell>
                <mxCell id="38" value="" style="aspect=fixed;html=1;points=[];align=center;image;fontSize=12;image=img/lib/azure2/analytics/Event_Hubs.svg;rounded=0;fillColor=none;" parent="1" vertex="1">
                    <mxGeometry x="219" y="340" width="44.66" height="42" as="geometry"/>
                </mxCell>
                <mxCell id="39" value="" style="aspect=fixed;html=1;points=[];align=center;image;fontSize=12;image=img/lib/azure2/iot/IoT_Hub.svg;rounded=0;fillColor=none;" parent="1" vertex="1">
                    <mxGeometry x="169.09" y="401" width="43.41" height="43.41" as="geometry"/>
                </mxCell>
                <mxCell id="40" value="" style="aspect=fixed;html=1;points=[];align=center;image;fontSize=12;image=img/lib/azure2/iot/Stream_Analytics_Jobs.svg;rounded=0;fillColor=none;" parent="1" vertex="1">
                    <mxGeometry x="309.41" y="382" width="51.59" height="44" as="geometry"/>
                </mxCell>
                <mxCell id="49" value="Azure Event&lt;br&gt;&amp;nbsp;Hub" style="labelPosition=center;verticalLabelPosition=middle;align=center;verticalAlign=middle;horizontal=1;textOpacity=90;fillColor=none;rounded=0;imageAspect=1;html=1;spacingTop=0;spacing=-26;fontColor=#333333;strokeColor=none;" parent="1" vertex="1">
                    <mxGeometry x="170" y="386" width="130" height="20" as="geometry"/>
                </mxCell>
                <mxCell id="51" value="Azure IoT&lt;br&gt;&amp;nbsp;Hub" style="labelPosition=center;verticalLabelPosition=middle;align=center;verticalAlign=middle;horizontal=1;textOpacity=90;fillColor=none;rounded=0;imageAspect=1;html=1;spacingTop=0;spacing=-26;fontColor=#333333;strokeColor=none;" parent="1" vertex="1">
                    <mxGeometry x="130" y="449.49999999999994" width="130" height="20" as="geometry"/>
                </mxCell>
                <mxCell id="53" value="Azure Stream&lt;br&gt;Analytics" style="labelPosition=center;verticalLabelPosition=middle;align=center;verticalAlign=middle;horizontal=1;textOpacity=90;fillColor=none;rounded=0;imageAspect=1;html=1;spacingTop=0;spacing=-26;fontColor=#333333;strokeColor=none;" parent="1" vertex="1">
                    <mxGeometry x="264" y="444.49999999999994" width="130" height="20" as="geometry"/>
                </mxCell>
                <mxCell id="54" value="&lt;br&gt;&lt;br&gt;&lt;br&gt;Azure Data Lake&lt;br&gt;Storage Gen2" style="labelPosition=center;verticalLabelPosition=middle;align=center;verticalAlign=middle;horizontal=1;textOpacity=90;fillColor=#f5f5f5;rounded=0;imageAspect=1;html=1;spacingTop=0;spacing=-26;fontColor=#333333;strokeColor=#666666;" parent="1" vertex="1">
                    <mxGeometry x="410" y="370" width="419" height="108" as="geometry"/>
                </mxCell>
                <mxCell id="55" value="" style="aspect=fixed;html=1;points=[];align=center;image;fontSize=12;image=img/lib/azure2/general/Server_Farm.svg;rounded=0;fillColor=none;" parent="1" vertex="1">
                    <mxGeometry x="20" y="413.5" width="42" height="42" as="geometry"/>
                </mxCell>
                <mxCell id="56" value="" style="aspect=fixed;html=1;points=[];align=center;image;fontSize=12;image=img/lib/azure2/storage/Data_Lake_Storage_Gen1.svg;rounded=0;fillColor=none;" parent="1" vertex="1">
                    <mxGeometry x="593.3100000000001" y="384.25" width="51.38" height="41.75" as="geometry"/>
                </mxCell>
                <mxCell id="57" value="&lt;br&gt;&lt;br&gt;&lt;br&gt;Microsoft&lt;br&gt;Purview" style="labelPosition=center;verticalLabelPosition=middle;align=center;verticalAlign=middle;horizontal=1;textOpacity=90;fillColor=#f5f5f5;rounded=0;imageAspect=1;html=1;spacingTop=0;spacing=-26;fontColor=#333333;strokeColor=#666666;" parent="1" vertex="1">
                    <mxGeometry x="850" y="301" width="80" height="120" as="geometry"/>
                </mxCell>
                <mxCell id="58" value="" style="aspect=fixed;html=1;points=[];align=center;image;fontSize=12;image=img/lib/azure2/web/Azure_Media_Service.svg;rounded=0;fillColor=none;" parent="1" vertex="1">
                    <mxGeometry x="872.5" y="321" width="35" height="35" as="geometry"/>
                </mxCell>
                <mxCell id="60" value="&lt;br&gt;&lt;br&gt;&lt;br&gt;" style="labelPosition=center;verticalLabelPosition=middle;align=center;verticalAlign=middle;horizontal=1;textOpacity=90;fillColor=#f5f5f5;rounded=0;imageAspect=1;html=1;spacingTop=0;spacing=-26;fontColor=#333333;strokeColor=none;" parent="1" vertex="1">
                    <mxGeometry x="290" width="539" height="350" as="geometry"/>
                </mxCell>
                <mxCell id="61" value="" style="aspect=fixed;html=1;points=[];align=center;image;fontSize=12;image=img/lib/azure2/analytics/Azure_Synapse_Analytics.svg;rounded=0;fillColor=none;" parent="1" vertex="1">
                    <mxGeometry x="314.39" y="43.75" width="79.61" height="91.55" as="geometry"/>
                </mxCell>
                <mxCell id="66" value="&lt;br&gt;&lt;br&gt;&lt;br&gt;&lt;br&gt;Power BI" style="labelPosition=center;verticalLabelPosition=middle;align=center;verticalAlign=middle;horizontal=1;textOpacity=90;fillColor=#f5f5f5;rounded=0;imageAspect=1;html=1;spacingTop=0;spacing=-26;fontColor=#333333;strokeColor=#666666;" parent="1" vertex="1">
                    <mxGeometry x="943" y="5.75" width="110" height="146.5" as="geometry"/>
                </mxCell>
                <mxCell id="67" value="" style="shape=image;imageAspect=0;aspect=fixed;verticalLabelPosition=bottom;verticalAlign=top;rounded=0;fillColor=none;html=1;image=data:image/svg+xml,PHN2ZyB4bWxucz0iaHR0cDovL3d3dy53My5vcmcvMjAwMC9zdmciIHdpZHRoPSI5NiIgaGVpZ2h0PSI5NiIgdmlld0JveD0iMCAwIDk2IDk2IiBmaWxsPSJub25lIj4KPGRlZnM+CjxmaWx0ZXIgaWQ9ImZpbHRlcjBfZiI+CjxmZUZsb29kIGZsb29kLW9wYWNpdHk9IjAiIHJlc3VsdD0iQmFja2dyb3VuZEltYWdlRml4Ii8+CjxmZUJsZW5kIG1vZGU9Im5vcm1hbCIgaW49IlNvdXJjZUdyYXBoaWMiIGluMj0iQmFja2dyb3VuZEltYWdlRml4IiByZXN1bHQ9InNoYXBlIi8+CjxmZUdhdXNzaWFuQmx1ciBzdGREZXZpYXRpb249IjAuNCIgcmVzdWx0PSJlZmZlY3QxX2ZvcmVncm91bmRCbHVyIi8+CjwvZmlsdGVyPgo8ZmlsdGVyIGlkPSJmaWx0ZXIxX2YiPgo8ZmVGbG9vZCBmbG9vZC1vcGFjaXR5PSIwIiByZXN1bHQ9IkJhY2tncm91bmRJbWFnZUZpeCIvPgo8ZmVCbGVuZCBtb2RlPSJub3JtYWwiIGluPSJTb3VyY2VHcmFwaGljIiBpbjI9IkJhY2tncm91bmRJbWFnZUZpeCIgcmVzdWx0PSJzaGFwZSIvPgo8ZmVHYXVzc2lhbkJsdXIgc3RkRGV2aWF0aW9uPSI0IiByZXN1bHQ9ImVmZmVjdDFfZm9yZWdyb3VuZEJsdXIiLz4KPC9maWx0ZXI+CjxsaW5lYXJHcmFkaWVudCBpZD0icGFpbnQwX2xpbmVhciIgeDE9IjQ2LjY2NjciIHkxPSItOC45Nzc5NWUtMDciIHgyPSI4OC44NjUzIiB5Mj0iODkuNDQ2NiIgZ3JhZGllbnRVbml0cz0idXNlclNwYWNlT25Vc2UiPgo8c3RvcCBzdG9wLWNvbG9yPSIjRTZBRDEwIi8+CjxzdG9wIG9mZnNldD0iMSIgc3RvcC1jb2xvcj0iI0M4N0UwRSIvPgo8L2xpbmVhckdyYWRpZW50Pgo8bGluZWFyR3JhZGllbnQgaWQ9InBhaW50MV9saW5lYXIiIHgxPSIzMS45OTc0IiB5MT0iMjQiIHgyPSI2Ny40ODU5IiB5Mj0iOTIuODI2MiIgZ3JhZGllbnRVbml0cz0idXNlclNwYWNlT25Vc2UiPgo8c3RvcCBzdG9wLWNvbG9yPSIjRjZENzUxIi8+CjxzdG9wIG9mZnNldD0iMSIgc3RvcC1jb2xvcj0iI0U2QUQxMCIvPgo8L2xpbmVhckdyYWRpZW50Pgo8bGluZWFyR3JhZGllbnQgaWQ9InBhaW50Ml9saW5lYXIiIHgxPSIxMS45OTc0IiB5MT0iNDgiIHgyPSIzMS42MDgzIiB5Mj0iOTQuNDc3NSIgZ3JhZGllbnRVbml0cz0idXNlclNwYWNlT25Vc2UiPgo8c3RvcCBzdG9wLWNvbG9yPSIjRjlFNTg5Ii8+CjxzdG9wIG9mZnNldD0iMSIgc3RvcC1jb2xvcj0iI0Y2RDc1MSIvPgo8L2xpbmVhckdyYWRpZW50Pgo8Y2xpcFBhdGggaWQ9ImNsaXAwIj4KPHJlY3Qgd2lkdGg9Ijk2IiBoZWlnaHQ9Ijk2IiBmaWxsPSJ3aGl0ZSIvPgo8L2NsaXBQYXRoPgo8L2RlZnM+CjxnIGNsaXAtcGF0aD0idXJsKCNjbGlwMCkiPgo8bWFzayBpZD0ibWFzazAiIG1hc2stdHlwZT0iYWxwaGEiIG1hc2tVbml0cz0idXNlclNwYWNlT25Vc2UiIHg9IjEyIiB5PSIwIiB3aWR0aD0iNzIiIGhlaWdodD0iOTYiPgo8cGF0aCBkPSJNNTIgNEM1MiAxLjc5MDg2IDUzLjc5MDkgMCA1NiAwSDgwQzgyLjIwOTEgMCA4NCAxLjc5MDg2IDg0IDRWOTJDODQgOTQuMjA5MSA4Mi4yMDkxIDk2IDgwIDk2SDE2QzEzLjc5MDkgOTYgMTIgOTQuMjA5MSAxMiA5MlY1MkMxMiA0OS43OTA5IDEzLjc5MDkgNDggMTYgNDhIMzIuMDAwMVYyOEMzMi4wMDAxIDI1Ljc5MDkgMzMuNzkxIDI0IDM2LjAwMDEgMjRINTJWNFoiIGZpbGw9IndoaXRlIi8+CjwvbWFzaz4KPGcgbWFzaz0idXJsKCNtYXNrMCkiPgo8cGF0aCBkPSJNODQgMEw4NCA5Nkg1Mkw1MiAwSDg0WiIgZmlsbD0idXJsKCNwYWludDBfbGluZWFyKSIvPgo8ZyBmaWx0ZXI9InVybCgjZmlsdGVyMF9mKSI+CjxwYXRoIGQ9Ik02NCAyOC40Vjk2LjRIMzJWMjQuNEg2MEM2Mi4yMDkxIDI0LjQgNjQgMjYuMTkwOSA2NCAyOC40WiIgZmlsbD0iYmxhY2siIGZpbGwtb3BhY2l0eT0iMC4yIi8+CjwvZz4KPGcgZmlsdGVyPSJ1cmwoI2ZpbHRlcjFfZikiPgo8cGF0aCBkPSJNNjQgMzBWOThIMzJWMjZINjBDNjIuMjA5MSAyNiA2NCAyNy43OTA5IDY0IDMwWiIgZmlsbD0iYmxhY2siIGZpbGwtb3BhY2l0eT0iMC4xOCIvPgo8L2c+CjxwYXRoIGQ9Ik02NCAyOFY5NkgzMlYyNEg2MEM2Mi4yMDkxIDI0IDY0IDI1Ljc5MDkgNjQgMjhaIiBmaWxsPSJ1cmwoI3BhaW50MV9saW5lYXIpIi8+CjxwYXRoIGQ9Ik0xMiA0OFY5Nkg0NFY1MkM0NCA0OS43OTA5IDQyLjIwOTEgNDggNDAgNDhIMTJaIiBmaWxsPSJ1cmwoI3BhaW50Ml9saW5lYXIpIi8+CjwvZz4KPC9nPgo8L3N2Zz4=;" parent="1" vertex="1">
                    <mxGeometry x="976.5" y="35.75" width="50" height="50" as="geometry"/>
                </mxCell>
                <mxCell id="68" value="Azure&lt;br&gt;Machine Learning" style="labelPosition=center;verticalLabelPosition=bottom;align=center;verticalAlign=top;horizontal=1;textOpacity=90;fillColor=#f5f5f5;rounded=0;imageAspect=1;html=1;spacingTop=0;spacing=-59;fontColor=#333333;strokeColor=#666666;" parent="1" vertex="1">
                    <mxGeometry x="940" y="174.5" width="117" height="125.5" as="geometry"/>
                </mxCell>
                <mxCell id="69" value="" style="aspect=fixed;html=1;points=[];align=center;image;fontSize=12;image=img/lib/azure2/ai_machine_learning/Machine_Learning_Studio_Workspaces.svg;rounded=0;fillColor=none;" parent="1" vertex="1">
                    <mxGeometry x="978.85" y="199" width="39.31" height="37" as="geometry"/>
                </mxCell>
                <mxCell id="72" value="" style="shape=singleArrow;whiteSpace=wrap;html=1;rounded=0;fillColor=#bac8d3;strokeColor=#23445d;" parent="1" vertex="1">
                    <mxGeometry x="114" y="109" width="166" height="30" as="geometry"/>
                </mxCell>
                <mxCell id="73" value="" style="shape=singleArrow;whiteSpace=wrap;html=1;rounded=0;fillColor=#bac8d3;strokeColor=#23445d;" parent="1" vertex="1">
                    <mxGeometry x="110" y="224" width="170" height="30" as="geometry"/>
                </mxCell>
                <mxCell id="75" value="" style="shape=singleArrow;whiteSpace=wrap;html=1;rounded=0;fillColor=#bac8d3;strokeColor=#23445d;" parent="1" vertex="1">
                    <mxGeometry x="114" y="383" width="56" height="30" as="geometry"/>
                </mxCell>
                <mxCell id="80" value="" style="shape=singleArrow;whiteSpace=wrap;html=1;rounded=0;fillColor=#bac8d3;strokeColor=#23445d;direction=north;" parent="1" vertex="1">
                    <mxGeometry x="540" y="339.5" width="30" height="43" as="geometry"/>
                </mxCell>
                <mxCell id="86" value="" style="shape=singleArrow;whiteSpace=wrap;html=1;rounded=0;fillColor=#bac8d3;strokeColor=#23445d;direction=south;" parent="1" vertex="1">
                    <mxGeometry x="650" y="341" width="31" height="40" as="geometry"/>
                </mxCell>
                <mxCell id="87" value="" style="shape=singleArrow;whiteSpace=wrap;html=1;rounded=0;fillColor=#bac8d3;strokeColor=#23445d;" parent="1" vertex="1">
                    <mxGeometry x="800" y="64" width="146" height="30" as="geometry"/>
                </mxCell>
                <mxCell id="88" value="" style="shape=singleArrow;whiteSpace=wrap;html=1;rounded=0;fillColor=#bac8d3;strokeColor=#23445d;" parent="1" vertex="1">
                    <mxGeometry x="800" y="212.25" width="151" height="30" as="geometry"/>
                </mxCell>
                <mxCell id="96" value="Azure Synapse&lt;br&gt;Analytics" style="labelPosition=center;verticalLabelPosition=middle;align=center;verticalAlign=middle;horizontal=1;textOpacity=90;fillColor=none;rounded=0;imageAspect=1;html=1;spacingTop=0;spacing=-26;fontColor=#333333;strokeColor=none;" vertex="1" parent="1">
                    <mxGeometry x="374" y="71.75" width="130" height="20" as="geometry"/>
                </mxCell>
                <mxCell id="98" value="" style="shape=singleArrow;whiteSpace=wrap;html=1;rounded=0;fillColor=#bac8d3;strokeColor=#23445d;direction=north;" vertex="1" parent="1">
                    <mxGeometry x="320.20000000000005" y="330" width="30" height="43" as="geometry"/>
                </mxCell>
                <mxCell id="47" value="&lt;br style=&quot;font-size: 8px;&quot;&gt;&lt;br style=&quot;font-size: 8px;&quot;&gt;&lt;br style=&quot;font-size: 8px;&quot;&gt;Azure Data &lt;br style=&quot;font-size: 8px;&quot;&gt;Factory" style="labelPosition=center;verticalLabelPosition=middle;align=center;verticalAlign=middle;horizontal=1;textOpacity=90;fillColor=#f5f5f5;rounded=0;imageAspect=1;html=1;spacingTop=0;spacing=-26;fontColor=#333333;strokeColor=#666666;fontSize=8;" parent="1" vertex="1">
                    <mxGeometry x="368" y="265.25" width="56" height="57.75" as="geometry"/>
                </mxCell>
                <mxCell id="41" value="" style="aspect=fixed;html=1;points=[];align=center;image;fontSize=12;image=img/lib/azure2/databases/Data_Factory.svg;rounded=0;fillColor=none;" parent="1" vertex="1">
                    <mxGeometry x="382.23" y="270" width="28.75" height="28.75" as="geometry"/>
                </mxCell>
                <mxCell id="59" value="&lt;br style=&quot;font-size: 9px;&quot;&gt;&lt;br style=&quot;font-size: 9px;&quot;&gt;&lt;br style=&quot;font-size: 9px;&quot;&gt;Azure &lt;br style=&quot;font-size: 9px;&quot;&gt;Databrics" style="labelPosition=center;verticalLabelPosition=middle;align=center;verticalAlign=middle;horizontal=1;textOpacity=90;fillColor=#f5f5f5;rounded=0;imageAspect=1;html=1;spacingTop=0;spacing=-26;fontColor=#333333;strokeColor=#666666;fontSize=9;" parent="1" vertex="1">
                    <mxGeometry x="368" y="134.75" width="56" height="53.25" as="geometry"/>
                </mxCell>
                <mxCell id="36" value="" style="aspect=fixed;html=1;points=[];align=center;image;fontSize=12;image=img/lib/azure2/analytics/Azure_Databricks.svg;rounded=0;fillColor=none;" parent="1" vertex="1">
                    <mxGeometry x="383.8" y="136.75" width="27.57" height="31.25" as="geometry"/>
                </mxCell>
                <mxCell id="101" value="&lt;br style=&quot;font-size: 8px&quot;&gt;&lt;br style=&quot;font-size: 8px&quot;&gt;&lt;br style=&quot;font-size: 8px&quot;&gt;専用SQL&lt;br&gt;プール" style="labelPosition=center;verticalLabelPosition=middle;align=center;verticalAlign=middle;horizontal=1;textOpacity=90;fillColor=#f5f5f5;rounded=0;imageAspect=1;html=1;spacingTop=0;spacing=-26;fontColor=#333333;strokeColor=#666666;fontSize=8;" vertex="1" parent="1">
                    <mxGeometry x="368" y="197.5" width="56" height="55.5" as="geometry"/>
                </mxCell>
                <mxCell id="102" value="" style="aspect=fixed;html=1;points=[];align=center;image;fontSize=12;image=img/lib/azure2/databases/Azure_SQL_Server_Stretch_Databases.svg;" vertex="1" parent="1">
                    <mxGeometry x="382.23" y="200.75" width="29.54" height="30" as="geometry"/>
                </mxCell>
                <mxCell id="104" value="Azure Synapse Analytics" style="labelPosition=center;verticalLabelPosition=middle;align=center;verticalAlign=middle;horizontal=1;textOpacity=90;fillColor=none;rounded=0;imageAspect=1;html=1;spacingTop=0;spacing=-26;fontColor=#333333;strokeColor=none;" vertex="1" parent="1">
                    <mxGeometry x="514" y="85" width="230" height="20" as="geometry"/>
                </mxCell>
                <mxCell id="105" value="Azure Synapse Studio" style="labelPosition=center;verticalLabelPosition=middle;align=center;verticalAlign=middle;horizontal=1;textOpacity=90;fillColor=#b1ddf0;rounded=0;imageAspect=1;html=1;spacingTop=0;spacing=-26;strokeColor=#10739e;fontColor=#333333;fontSize=11;" vertex="1" parent="1">
                    <mxGeometry x="504" y="105" width="250" height="20" as="geometry"/>
                </mxCell>
                <mxCell id="106" value="" style="labelPosition=center;verticalLabelPosition=middle;align=center;verticalAlign=middle;horizontal=1;textOpacity=90;fillColor=#eeeeee;rounded=0;imageAspect=1;html=1;spacingTop=0;spacing=-26;strokeColor=none;fontSize=11;" vertex="1" parent="1">
                    <mxGeometry x="504" y="133" width="250" height="200" as="geometry"/>
                </mxCell>
                <mxCell id="117" value="" style="edgeStyle=none;html=1;fontSize=11;fontColor=#333333;" edge="1" parent="1" source="107" target="116">
                    <mxGeometry relative="1" as="geometry"/>
                </mxCell>
                <mxCell id="107" value="パイプライン（データ統合）" style="labelPosition=center;verticalLabelPosition=middle;align=center;verticalAlign=middle;horizontal=1;textOpacity=90;fillColor=#b1ddf0;rounded=0;imageAspect=1;html=1;spacingTop=0;spacing=-26;strokeColor=#10739e;fontColor=#333333;fontSize=8;" vertex="1" parent="1">
                    <mxGeometry x="524" y="212" width="210" height="20.75" as="geometry"/>
                </mxCell>
                <mxCell id="111" value="&lt;br style=&quot;font-size: 8px;&quot;&gt;&lt;br style=&quot;font-size: 8px;&quot;&gt;&lt;br style=&quot;font-size: 8px;&quot;&gt;専用SQLプール" style="labelPosition=center;verticalLabelPosition=bottom;align=center;verticalAlign=top;horizontal=1;textOpacity=90;fillColor=#f5f5f5;rounded=0;imageAspect=1;html=1;spacingTop=0;spacing=-50;fontColor=#333333;strokeColor=#666666;fontSize=8;direction=south;" vertex="1" parent="1">
                    <mxGeometry x="518.75" y="141" width="65.25" height="61" as="geometry"/>
                </mxCell>
                <mxCell id="110" value="" style="aspect=fixed;html=1;points=[];align=center;image;fontSize=12;image=img/lib/azure2/databases/Azure_SQL_Server_Stretch_Databases.svg;" vertex="1" parent="1">
                    <mxGeometry x="534" y="151" width="29.54" height="30" as="geometry"/>
                </mxCell>
                <mxCell id="116" value="サーバレス&lt;br&gt;SQLプール" style="labelPosition=center;verticalLabelPosition=bottom;align=center;verticalAlign=top;horizontal=1;textOpacity=90;fillColor=#f5f5f5;rounded=0;imageAspect=1;html=1;spacingTop=0;spacing=-26;fontColor=#333333;strokeColor=#666666;fontSize=8;direction=south;" vertex="1" parent="1">
                    <mxGeometry x="596.38" y="141" width="65.25" height="61" as="geometry"/>
                </mxCell>
                <mxCell id="118" value="&lt;font style=&quot;font-size: 9px&quot;&gt;Apache Spark&lt;br&gt;プール&lt;/font&gt;" style="labelPosition=center;verticalLabelPosition=bottom;align=center;verticalAlign=top;horizontal=1;textOpacity=90;fillColor=#f5f5f5;rounded=0;imageAspect=1;html=1;spacingTop=0;spacing=-26;fontColor=#333333;strokeColor=#666666;fontSize=8;direction=south;" vertex="1" parent="1">
                    <mxGeometry x="670" y="141" width="65.25" height="61" as="geometry"/>
                </mxCell>
                <mxCell id="119" value="Synapse ワークスペース" style="labelPosition=center;verticalLabelPosition=middle;align=center;verticalAlign=middle;horizontal=1;textOpacity=90;fillColor=none;rounded=0;imageAspect=1;html=1;spacingTop=0;spacing=-26;fontColor=#333333;strokeColor=none;fontSize=9;" vertex="1" parent="1">
                    <mxGeometry x="491.62" y="317.99999999999994" width="130" height="20" as="geometry"/>
                </mxCell>
                <mxCell id="120" value="共有メタデータ管理" style="labelPosition=center;verticalLabelPosition=middle;align=center;verticalAlign=middle;horizontal=1;textOpacity=90;fillColor=#b1ddf0;rounded=0;imageAspect=1;html=1;spacingTop=0;spacing=-26;strokeColor=#10739e;fontColor=#333333;fontSize=8;" vertex="1" parent="1">
                    <mxGeometry x="524" y="239.5" width="210" height="20" as="geometry"/>
                </mxCell>
                <mxCell id="121" value="共通セキュリティモデル" style="labelPosition=center;verticalLabelPosition=middle;align=center;verticalAlign=middle;horizontal=1;textOpacity=90;fillColor=#b1ddf0;rounded=0;imageAspect=1;html=1;spacingTop=0;spacing=-26;strokeColor=#10739e;fontColor=#333333;fontSize=8;" vertex="1" parent="1">
                    <mxGeometry x="524" y="265" width="210" height="20.75" as="geometry"/>
                </mxCell>
                <mxCell id="122" value="接続されたサービス" style="labelPosition=center;verticalLabelPosition=middle;align=center;verticalAlign=middle;horizontal=1;textOpacity=90;fillColor=#b1ddf0;rounded=0;imageAspect=1;html=1;spacingTop=0;spacing=-26;strokeColor=#10739e;fontColor=#333333;fontSize=8;" vertex="1" parent="1">
                    <mxGeometry x="524" y="292.5" width="210" height="20" as="geometry"/>
                </mxCell>
                <mxCell id="124" style="edgeStyle=none;html=1;entryX=0.5;entryY=1;entryDx=0;entryDy=0;fontSize=8;fontColor=#333333;strokeColor=#000000;strokeWidth=1;endArrow=classicThin;endFill=1;startArrow=classic;startFill=1;exitX=1;exitY=0.5;exitDx=0;exitDy=0;" edge="1" parent="1" source="101" target="111">
                    <mxGeometry relative="1" as="geometry"/>
                </mxCell>
                <mxCell id="126" style="edgeStyle=none;html=1;fontSize=8;fontColor=#333333;strokeColor=#000000;strokeWidth=1;endArrow=classicThin;endFill=1;startArrow=classic;startFill=1;entryX=0;entryY=0.75;entryDx=0;entryDy=0;" edge="1" parent="1" target="107">
                    <mxGeometry relative="1" as="geometry">
                        <mxPoint x="425" y="293.96868365180467" as="sourcePoint"/>
                        <mxPoint x="514.75" y="253" as="targetPoint"/>
                    </mxGeometry>
                </mxCell>
                <mxCell id="128" style="edgeStyle=none;html=1;entryX=0.25;entryY=1;entryDx=0;entryDy=0;fontSize=8;fontColor=#333333;strokeColor=#000000;strokeWidth=1;endArrow=classicThin;endFill=1;startArrow=classic;startFill=1;exitX=1;exitY=0.25;exitDx=0;exitDy=0;" edge="1" parent="1" source="59" target="118">
                    <mxGeometry relative="1" as="geometry">
                        <mxPoint x="425" y="168" as="sourcePoint"/>
                        <mxPoint x="514.75" y="114.25" as="targetPoint"/>
                    </mxGeometry>
                </mxCell>
                <mxCell id="129" value="代替" style="labelPosition=center;verticalLabelPosition=middle;align=center;verticalAlign=middle;horizontal=1;textOpacity=90;fillColor=none;rounded=0;imageAspect=1;html=1;spacingTop=0;spacing=-26;fontColor=#333333;strokeColor=none;fontSize=10;" vertex="1" parent="1">
                    <mxGeometry x="416.27000000000004" y="152.25" width="45.46" height="20" as="geometry"/>
                </mxCell>
                <mxCell id="134" value="" style="shape=singleArrow;whiteSpace=wrap;html=1;rounded=0;fillColor=#bac8d3;strokeColor=#23445d;" vertex="1" parent="1">
                    <mxGeometry x="244" y="414.5" width="56" height="30" as="geometry"/>
                </mxCell>
                <mxCell id="135" value="" style="shape=singleArrow;whiteSpace=wrap;html=1;rounded=0;fillColor=#bac8d3;strokeColor=#23445d;" vertex="1" parent="1">
                    <mxGeometry x="800" y="305" width="56" height="30" as="geometry"/>
                </mxCell>
                <mxCell id="136" value="" style="shape=singleArrow;whiteSpace=wrap;html=1;rounded=0;fillColor=#bac8d3;strokeColor=#23445d;" vertex="1" parent="1">
                    <mxGeometry x="800" y="384.5" width="56" height="30" as="geometry"/>
                </mxCell>
                <mxCell id="137" value="統合サービスであるAzure Synapse Analyticsを利用することでシンプルな分析基盤を構築" style="labelPosition=center;verticalLabelPosition=middle;align=center;verticalAlign=middle;horizontal=1;textOpacity=90;fillColor=none;rounded=0;imageAspect=1;html=1;spacingTop=0;spacing=-26;fontColor=#000000;strokeColor=none;" vertex="1" parent="1">
                    <mxGeometry x="395.23" y="5.75" width="330" height="20" as="geometry"/>
                </mxCell>
                <mxCell id="144" value="" style="endArrow=none;dashed=1;html=1;dashPattern=1 3;strokeWidth=2;fontSize=8;fontColor=#000000;strokeColor=#000000;" edge="1" parent="1">
                    <mxGeometry width="50" height="50" relative="1" as="geometry">
                        <mxPoint x="466.73" y="326" as="sourcePoint"/>
                        <mxPoint x="466.73" y="139" as="targetPoint"/>
                    </mxGeometry>
                </mxCell>
            </root>
        </mxGraphModel>
    </diagram>
</mxfile>